<svg width="61" height="61" viewBox="0 0 61 61" fill="none" xmlns="http://www.w3.org/2000/svg">
<circle cx="30.5" cy="30.5" r="30.5" fill="url(#paint0_linear_41260_5948)"/>
<g clip-path="url(#clip0_41260_5948)">
<path d="M20.7121 24.1983H23.1469C23.3379 24.9203 23.7548 25.5576 24.3334 26.012C24.9119 26.4664 25.6199 26.7126 26.3482 26.7126C27.0765 26.7126 27.7845 26.4664 28.3631 26.012C28.9416 25.5576 29.3586 24.9203 29.5496 24.1983H40.2895C40.5255 24.1983 40.7519 24.1019 40.9188 23.9305C41.0857 23.759 41.1794 23.5265 41.1794 23.284C41.1794 23.0416 41.0857 22.809 40.9188 22.6376C40.7519 22.4661 40.5255 22.3698 40.2895 22.3698H29.5496C29.3586 21.6478 28.9416 21.0105 28.3631 20.5561C27.7845 20.1017 27.0765 19.8555 26.3482 19.8555C25.6199 19.8555 24.9119 20.1017 24.3334 20.5561C23.7548 21.0105 23.3379 21.6478 23.1469 22.3698H20.7121C20.4761 22.3698 20.2498 22.4661 20.0829 22.6376C19.916 22.809 19.8223 23.0416 19.8223 23.284C19.8223 23.5265 19.916 23.759 20.0829 23.9305C20.2498 24.1019 20.4761 24.1983 20.7121 24.1983ZM26.3478 21.6842C26.6558 21.6842 26.9569 21.778 27.2129 21.9538C27.469 22.1296 27.6686 22.3794 27.7865 22.6718C27.9044 22.9641 27.9352 23.2858 27.8751 23.5962C27.815 23.9065 27.6667 24.1916 27.4489 24.4153C27.2311 24.6391 26.9537 24.7915 26.6516 24.8532C26.3495 24.9149 26.0364 24.8832 25.7518 24.7621C25.4673 24.6411 25.224 24.436 25.0529 24.1729C24.8818 23.9098 24.7905 23.6005 24.7905 23.284C24.7909 22.8599 24.9552 22.4532 25.2471 22.1533C25.5391 21.8533 25.9349 21.6846 26.3478 21.6842Z" fill="#FCF9F6"/>
<path d="M40.2895 30.0849H37.8548C37.6641 29.3629 37.2474 28.7255 36.6688 28.271C36.0903 27.8166 35.3822 27.5703 34.6539 27.5703C33.9256 27.5703 33.2175 27.8166 32.639 28.271C32.0605 28.7255 31.6437 29.3629 31.453 30.0849H20.7121C20.4761 30.0849 20.2498 30.1812 20.0829 30.3526C19.916 30.524 19.8223 30.7565 19.8223 30.9989C19.8223 31.2413 19.916 31.4738 20.0829 31.6452C20.2498 31.8166 20.4761 31.9129 20.7121 31.9129H31.453C31.6437 32.6348 32.0605 33.2723 32.639 33.7267C33.2175 34.1812 33.9256 34.4275 34.6539 34.4275C35.3822 34.4275 36.0903 34.1812 36.6688 33.7267C37.2474 33.2723 37.6641 32.6348 37.8548 31.9129H40.2895C40.5255 31.9129 40.7519 31.8166 40.9188 31.6452C41.0857 31.4738 41.1794 31.2413 41.1794 30.9989C41.1794 30.7565 41.0857 30.524 40.9188 30.3526C40.7519 30.1812 40.5255 30.0849 40.2895 30.0849ZM34.6539 32.5984C34.3459 32.5984 34.0448 32.5045 33.7887 32.3288C33.5326 32.153 33.333 31.9032 33.2152 31.611C33.0973 31.3187 33.0665 30.9971 33.1265 30.6868C33.1866 30.3766 33.3349 30.0916 33.5527 29.8679C33.7705 29.6442 34.048 29.4919 34.3501 29.4301C34.6522 29.3684 34.9653 29.4001 35.2499 29.5212C35.5344 29.6422 35.7776 29.8472 35.9488 30.1103C36.1199 30.3733 36.2112 30.6825 36.2112 30.9989C36.2107 31.4229 36.0465 31.8295 35.7546 32.1293C35.4626 32.4292 35.0668 32.5979 34.6539 32.5984Z" fill="#FCF9F6"/>
<path d="M40.2895 37.7995H29.5496C29.3586 37.0775 28.9416 36.4402 28.3631 35.9858C27.7845 35.5313 27.0765 35.2852 26.3482 35.2852C25.6199 35.2852 24.9119 35.5313 24.3334 35.9858C23.7548 36.4402 23.3379 37.0775 23.1469 37.7995H20.7121C20.4761 37.7995 20.2498 37.8958 20.0829 38.0673C19.916 38.2387 19.8223 38.4713 19.8223 38.7137C19.8223 38.9562 19.916 39.1887 20.0829 39.3602C20.2498 39.5316 20.4761 39.6279 20.7121 39.6279H23.1469C23.3379 40.3499 23.7548 40.9873 24.3334 41.4417C24.9119 41.8961 25.6199 42.1423 26.3482 42.1423C27.0765 42.1423 27.7845 41.8961 28.3631 41.4417C28.9416 40.9873 29.3586 40.3499 29.5496 39.6279H40.2895C40.5255 39.6279 40.7519 39.5316 40.9188 39.3602C41.0857 39.1887 41.1794 38.9562 41.1794 38.7137C41.1794 38.4713 41.0857 38.2387 40.9188 38.0673C40.7519 37.8958 40.5255 37.7995 40.2895 37.7995ZM26.3478 40.3136C26.0398 40.3136 25.7387 40.2198 25.4826 40.044C25.2265 39.8682 25.0269 39.6183 24.909 39.326C24.7911 39.0336 24.7603 38.712 24.8204 38.4016C24.8805 38.0913 25.0288 37.8062 25.2466 37.5824C25.4644 37.3587 25.7419 37.2063 26.0439 37.1446C26.346 37.0828 26.6592 37.1145 26.9437 37.2356C27.2283 37.3567 27.4715 37.5618 27.6426 37.8249C27.8137 38.088 27.9051 38.3973 27.9051 38.7137C27.9043 39.1378 27.7401 39.5443 27.4482 39.8442C27.1563 40.1441 26.7606 40.3129 26.3478 40.3136Z" fill="#FCF9F6"/>
</g>
<defs>
<linearGradient id="paint0_linear_41260_5948" x1="0" y1="0" x2="45.2212" y2="69.0811" gradientUnits="userSpaceOnUse">
<stop stop-color="#F4EAD8"/>
<stop offset="1" stop-color="#E0B764"/>
</linearGradient>
<clipPath id="clip0_41260_5948">
<rect width="23" height="24" fill="white" transform="translate(19 19)"/>
</clipPath>
</defs>
</svg>
