<svg width="24" height="24" viewBox="0 0 24 24" fill="none" xmlns="http://www.w3.org/2000/svg">
<path d="M20.3635 12.7083C20.5509 12.5208 20.6562 12.2665 20.6562 12.0013C20.6562 11.7362 20.5509 11.4818 20.3635 11.2943L14.7065 5.63732C14.6142 5.54181 14.5039 5.46563 14.3819 5.41322C14.2599 5.36081 14.1286 5.33322 13.9959 5.33207C13.8631 5.33091 13.7314 5.35622 13.6085 5.4065C13.4856 5.45678 13.374 5.53103 13.2801 5.62492C13.1862 5.71882 13.1119 5.83047 13.0616 5.95337C13.0114 6.07626 12.9861 6.20794 12.9872 6.34072C12.9884 6.4735 13.016 6.60472 13.0684 6.72672C13.1208 6.84873 13.197 6.95907 13.2925 7.05132L17.2425 11.0013L3.99946 11.0013C3.73425 11.0013 3.47989 11.1067 3.29236 11.2942C3.10482 11.4817 2.99946 11.7361 2.99946 12.0013C2.99946 12.2665 3.10482 12.5209 3.29236 12.7084C3.47989 12.896 3.73425 13.0013 3.99946 13.0013L17.2425 13.0013L13.2925 16.9513C13.1103 17.1399 13.0095 17.3925 13.0118 17.6547C13.0141 17.9169 13.1192 18.1677 13.3046 18.3531C13.4901 18.5385 13.7409 18.6437 14.0031 18.646C14.2653 18.6483 14.5179 18.5475 14.7065 18.3653L20.3635 12.7083Z" fill="#FCF9F6" fill-opacity="0.7"/>
</svg>
